<svg xmlns="http://www.w3.org/2000/svg" xmlns:xlink="http://www.w3.org/1999/xlink" width="36.319" height="36.615" version="1.1" viewBox="0 0 257 259" xml:space="preserve" style="shape-rendering:geometricPrecision;text-rendering:geometricPrecision;image-rendering:optimizeQuality;fill-rule:evenodd;clip-rule:evenodd"><defs><style type="text/css">.fil0{fill:#093}.fil2{fill:#00b223}.fil1{fill:#fff}</style></defs><g id="Layer_x0020_1"><metadata id="CorelCorpID_0Corel-Layer"/><g id="_243960808"><path d="M122 0c-68,3 -122,60 -122,129 0,21 5,40 14,58l-14 66c0,3 3,7 6,6l65 -16c17,9 36,13 55,14 70,1 128,-55 131,-125 2,-74 -60,-135 -135,-132z" class="fil0"/><path d="M199 199c-19,19 -44,30 -71,30 -15,0 -30,-4 -44,-11l-9 -4 -40 9 8 -40 -4 -9c-7,-14 -11,-30 -11,-46 0,-26 10,-52 29,-71 19,-19 45,-29 71,-29 27,0 52,10 71,29 19,19 30,45 30,71 0,27 -11,53 -30,71z" class="fil1"/><circle cx="128" cy="128" r="71" class="fil2"/></g></g></svg>